# AST/ASF file generated using VICON BodyLanguage
# -----------------------------------------------
:version 1.10
:name VICON
:units
  mass 1.0
  length 0.45
  angle deg
:documentation
   .ast/.asf automatically generated from VICON data using
   VICON BodyBuilder and BodyLanguage model FoxedUp or BRILLIANT.MOD
:root
   order TX TY TZ RX RY RZ
   axis XYZ
   position 0 0 0  
   orientation 0 0 0 
:bonedata
  begin
     id 1 
     name lhipjoint
     direction 0.570549 -0.739093 0.358072 
     length 2.41801 
     axis 0 0 0  XYZ
  end
  begin
     id 2 
     name lfemur
     direction 0.34202 -0.939693 0  
     length 7.44434  
     axis 0 0 20  XYZ
    dof rx ry rz
    limits (-160.0 20.0)
           (-70.0 70.0)
           (-60.0 70.0)
  end
  begin
     id 3 
     name ltibia
     direction 0.34202 -0.939693 0   
     length 7.60047   
     axis 0 0 20   XYZ
    dof rx
    limits (-10.0 170.0)
  end
  begin
     id 4 
     name lfoot
     direction 0.0909041 -0.249757 0.964032   
     length 2.03437   
     axis -90 7.62852e-016 20   XYZ
    dof rx rz
    limits (-45.0 90.0)
           (-70.0 20.0)
  end
  begin
     id 5 
     name ltoes
     direction 1.53547e-011 -4.2174e-011 1   
     length 1.02054   
     axis -90 7.62852e-016 20   XYZ
    dof rx
    limits (-90.0 20.0)
  end
  begin
     id 6 
     name rhipjoint
     direction -0.558096 -0.746754 0.361784   
     length 2.3932  
     axis 0 0 0  XYZ 
  end
  begin
     id 7 
     name rfemur
     direction -0.34202 -0.939693 0   
     length 7.3886   
     axis 0 0 -20   XYZ
    dof rx ry rz
    limits (-160.0 20.0)
           (-70.0 70.0)
           (-70.0 60.0)
  end
  begin
     id 8 
     name rtibia
     direction -0.34202 -0.939693 0   
     length 7.4839   
     axis 0 0 -20   XYZ
    dof rx
    limits (-10.0 170.0)
 end
 begin
     id 9 
     name rfoot
     direction -0.114619 -0.314914 0.942174   
     length 2.25127  
     axis -90 -7.62852e-016 -20   XYZ
    dof rx rz
    limits (-45.0 90.0)
           (-20.0 70.0)
  end
  begin
     id 10 
     name rtoes
     direction -1.53518e-011 -4.21881e-011 1   
     length 1.11821   
     axis -90 -7.62852e-016 -20   XYZ
    dof rx
    limits (-90.0 20.0)
  end
  begin
     id 11 
     name lowerback
     direction -0.00902269 0.996426 -0.0839821   
     length 2.25052   
     axis 0 0 0   XYZ
    dof rx ry rz
    limits (-20.0 45.0)
           (-30.0 30.0)
           (-30.0 30.0)
  end
  begin
     id 12 
     name upperback
     direction 0.0370973 0.999169 -0.0168941   
     length 2.24876   
     axis 0 0 0   XYZ
    dof rx ry rz
    limits (-20.0 45.0)
           (-30.0 30.0)
           (-30.0 30.0)
  end
  begin
     id 13 
     name thorax
     direction 0.0402726 0.998931 0.0227027   
     length 2.26408   
     axis 0 0 0   XYZ
    dof rx ry rz
    limits (-20.0 45.0)
           (-30.0 30.0)
           (-30.0 30.0)
  end
  begin
     id 14 
     name lowerneck
     direction -0.0733697 0.98508 0.155675   
     length 1.58204   
     axis 0 0 0   XYZ
    dof rx ry rz
    limits (-20.0 45.0)
           (-30.0 30.0)
           (-30.0 30.0)
  end
  begin
     id 15 
     name upperneck
     direction 0.0426554 0.993501 -0.105526   
     length 1.61222   
     axis 0 0 0   XYZ
    dof rx ry rz
    limits (-20.0 45.0)
           (-30.0 30.0)
           (-30.0 30.0)
  end
  begin
     id 16
     name head
     direction 0.020792 0.998384 -0.0528868  
     length 1.61527  
     axis 0 0 0   XYZ
    dof rx ry rz
    limits (-20.0 45.0)
           (-30.0 30.0)
           (-30.0 30.0)
  end
  begin
     id 17 
     name lclavicle
     direction 0.967109 0.155462 -0.201325  
     length 3.59357  
     axis 0 0 0   XYZ
    dof ry rz
    limits (-20.0 10.0)
           (0.0 20.0)
  end
  begin
     id 18 
     name lhumerus
     direction 1 -4.48968e-011 2.38195e-027   
     length 5.38154   
     axis 180 -30 -90   XYZ
    dof rx ry rz
    limits (-60.0 90.0)
           (-90.0 90.0)
           (-90.0 90.0)
  end
  begin
     id 19
     name lradius
     direction 1 -4.48961e-011 4.85371e-027   
     length 3.33312   
     axis 180 -30 -90   XYZ
    dof rx
    limits (-10.0 170.0)
  end
  begin
     id 20
     name lwrist
     direction 1 -4.48961e-011 4.76515e-027   
     length 1.66656   
     axis -3.27502e-015 90 90   XYZ
    dof ry
    limits (-180.0 0.0)
 end
  begin
     id 21 
     name lhand
     direction 1 -4.48951e-011 9.53074e-027   
     length 0.710789   
     axis -6.08098e-015 90 90   XYZ
    dof rx rz
    limits (-90.0 90.0)
           (-45.0 45.0)
  end
  begin
     id 22 
     name lfingers
     direction 1 -4.48953e-011 1.90613e-026   
     length 0.573057   
     axis -1.21619e-014 90 90   XYZ
    dof rx
    limits (0.0 90.0)
  end
  begin
     id 23
     name lthumb
     direction 0.707107 -6.34973e-011 0.707107   
     length 0.822798   
     axis -90 45 -9.86923e-015   XYZ
    dof rx rz
    limits (-45.0 45.0)
           (-45.0 45.0)
  end
  begin
     id 24 
     name rclavicle
     direction -0.9585 0.265289 -0.104398   
     length 3.42039  
     axis 0 0 0   XYZ 
    dof ry rz
    limits (-10.0 20.0)
           (-20.0 0.0)
  end
  begin
     id 25 
     name rhumerus
     direction -1 -4.48977e-011 2.21478e-027  
     length 5.16954   
     axis 180 30 90   XYZ
    dof rx ry rz
    limits (-90.0 60.0)
           (-90.0 90.0)
           (-90.0 90.0)
  end
  begin
     id 26 
     name rradius
     direction -1 -4.48967e-011 5.63677e-027   
     length 3.38287   
     axis 180 30 90   XYZ
    dof rx
    limits (-10.0 170.0)
  end
  begin
     id 27 
     name rwrist
     direction -1 -4.48967e-011 4.76501e-027   
     length 1.69144   
     axis -3.27502e-015 -90 -90   XYZ
    dof ry
    limits (-180.0 0.0)
  end
  begin
     id 28
     name rhand
     direction -1 -4.48902e-011 9.53292e-027   
     length 0.817967   
     axis -6.08098e-015 -90 -90   XYZ
    dof rx rz
    limits (-90.0 90.0)
           (-45.0 45.0)
  end
  begin
     id 29
     name rfingers
     direction -1 -4.49012e-011 1.90561e-026   
     length 0.659466   
     axis -1.21619e-014 -90 -90   XYZ
    dof rx
    limits (0.0 90.0)
  end
  begin
     id 30
     name rthumb
     direction -0.707107 -6.34944e-011 0.707107   
     length 0.946865   
     axis -90 -45 9.86923e-015   XYZ
    dof rx rz
    limits (-45.0 45.0)
           (-45.0 45.0)
  end
:hierarchy
  begin
    root lhipjoint rhipjoint lowerback
    lhipjoint lfemur
    lfemur ltibia
    ltibia lfoot
    lfoot ltoes
    rhipjoint rfemur
    rfemur rtibia
    rtibia rfoot
    rfoot rtoes
    lowerback upperback
    upperback thorax
    thorax lowerneck lclavicle rclavicle
    lowerneck upperneck
    upperneck head
    lclavicle lhumerus
    lhumerus lradius
    lradius lwrist
    lwrist lhand lthumb
    lhand lfingers
    rclavicle rhumerus
    rhumerus rradius
    rradius rwrist
    rwrist rhand rthumb
    rhand rfingers
  end

#!OML:ASF F:\twosubjects\two\wednesday\Session 1\Justin1.ASF
:FULLY-SPECIFIED
:DEGREES
1
root 11.2807 17.2613 -17.3711 4.66749 -12.7077 -6.38148
lowerback 2.19759 2.54995 4.93113
upperback -0.0302452 3.55578 2.97847
thorax -1.15291 1.75151 0.194104
lowerneck -16.2758 -2.34743 -9.09997
upperneck 19.771 -1.66852 3.49126
head 9.00774 -1.09447 2.4932
rclavicle -5.22307e-014 -1.59028e-015
rhumerus -30.461 -17.6047 -76.0196
rradius 44.6252
rwrist -19.3434
rhand -16.4221 20.6824
rfingers 7.12502
rthumb 9.79294 -9.06989
lclavicle -5.22307e-014 -1.59028e-015
lhumerus -33.7086 16.8416 82.1311
lradius 26.4928
lwrist -18.3572
lhand 2.7787 34.7119
lfingers 7.12502
lthumb 28.2491 62.6023
rfemur 13.9971 5.15404 26.7763
rtibia 17.8507
rfoot -2.1929 3.03682
rtoes -10.7323
lfemur -32.3633 4.36928 -11.9719
ltibia 30.6452
lfoot -3.27594 4.80433
ltoes -1.96448
2
root 11.3077 17.2912 -17.1613 4.19942 -12.6694 -5.58134
lowerback 2.19862 2.50315 4.2259
upperback 0.0279082 3.4711 2.7072
thorax -1.12071 1.71474 0.30958
lowerneck -16.5862 -2.51414 -9.89439
upperneck 20.5316 -1.88125 4.42872
head 9.35912 -1.16573 2.93344
rclavicle 4.09496e-014 1.03368e-014
rhumerus -31.0597 -18.7656 -75.5797
rradius 43.9226
rwrist -19.5537
rhand -15.8542 20.0611
rfingers 7.12502
rthumb 10.3408 -9.66464
lclavicle 4.09496e-014 1.03368e-014
lhumerus -33.5173 16.2273 82.262
lradius 26.004
lwrist -18.2635
lhand 2.851 34.4175
lfingers 7.12502
lthumb 28.3182 62.2965
rfemur 12.5985 4.92492 25.6406
rtibia 21.7077
rfoot -0.370942 2.88708
rtoes -7.48415
lfemur -31.4813 4.38764 -13.0959
ltibia 30.8761
lfoot -3.04146 3.88696
ltoes 0.132892
3
root 11.3445 17.3013 -16.9613 4.02898 -12.5592 -5.56825
lowerback 2.22615 2.42923 4.38147
upperback 0.0818682 3.37527 2.7041
thorax -1.07391 1.66712 0.223072
lowerneck -17.8331 -2.73502 -9.8078
upperneck 21.9289 -1.97241 3.93461
head 10.0907 -1.27665 2.74987
rclavicle -8.69683e-016 -1.35174e-014
rhumerus -31.5985 -19.918 -75.0144
rradius 43.3402
rwrist -19.8744
rhand -16.158 19.4368
rfingers 7.12502
rthumb 10.0477 -10.3033
lclavicle -8.69683e-016 -1.35174e-014
lhumerus -33.2588 16.3279 82.31
lradius 25.5781
lwrist -18.6974
lhand 3.07672 34.0837
lfingers 7.12502
lthumb 28.5339 61.9266
rfemur 11.0694 4.67338 25.3238
rtibia 25.3058
rfoot 1.68912 2.76787
rtoes -4.45118
lfemur -31.0594 4.40812 -13.3488
ltibia 31.647
lfoot -3.32554 3.97965
ltoes 0.20706
4
root 11.3783 17.3018 -16.7731 3.93718 -12.3055 -6.04678
lowerback 2.38632 2.29986 4.91924
upperback 0.0947245 3.22838 2.88713
thorax -1.13575 1.58968 0.11006
lowerneck -17.928 -2.70868 -10.1467
upperneck 22.0748 -1.91465 4.27919
head 10.1632 -1.24062 2.94004
rclavicle -6.05796e-014 -2.06736e-014
rhumerus -32.2851 -21.1087 -74.248
rradius 42.7191
rwrist -20.1154
rhand -15.8815 19.4892
rfingers 7.12502
rthumb 10.3145 -10.2378
lclavicle -6.05796e-014 -2.06736e-014
lhumerus -33.2082 16.6635 82.2845
lradius 25.4548
lwrist -19.2071
lhand 3.37725 34.136
lfingers 7.12502
lthumb 28.821 61.9304
rfemur 9.64046 4.38206 25.5863
rtibia 28.4772
rfoot 4.40425 2.49931
rtoes -1.07094
lfemur -30.6736 4.56025 -13.0752
ltibia 32.3149
lfoot -3.59443 4.05238
ltoes -0.883639
5
root 11.409 17.3168 -16.5816 3.78114 -12.0627 -6.33699
lowerback 2.55842 2.1653 5.29151
upperback 0.0592368 3.07456 2.93579
thorax -1.25733 1.50766 -0.0499179
lowerneck -17.7878 -2.63226 -9.70087
upperneck 22.1027 -1.84309 3.84004
head 10.1325 -1.22367 2.71905
rclavicle -2.81032e-014 -3.10104e-014
rhumerus -33.204 -22.1809 -73.5338
rradius 42.191
rwrist -20.3999
rhand -15.2611 19.7842
rfingers 7.12502
rthumb 10.913 -9.9122
lclavicle -2.81032e-014 -3.10104e-014
lhumerus -33.2533 16.4271 82.2434
lradius 25.4475
lwrist -19.2246
lhand 3.26484 34.3992
lfingers 7.12502
lthumb 28.7136 62.2119
rfemur 8.20387 4.29626 25.7015
rtibia 31.5332
rfoot 7.57463 1.94951
rtoes 2.88657
lfemur -30.1973 4.62722 -12.9904
ltibia 33.0257
lfoot -4.18915 3.63898
ltoes -0.387637
6
root 11.4428 17.3332 -16.3812 3.63065 -12.0745 -6.5079
lowerback 2.73205 2.04088 5.58904
upperback -0.0917838 2.9405 2.96854
thorax -1.50277 1.43128 -0.187367
lowerneck -17.4803 -2.49405 -10.0924
upperneck 22.4587 -1.6966 4.31776
head 10.1981 -1.14446 2.98237
rclavicle 3.8266e-014 3.69739e-014
rhumerus -34.2494 -22.9792 -72.8018
rradius 41.7345
rwrist -20.8517
rhand -15.6337 19.3337
rfingers 7.12502
rthumb 10.5535 -10.3813
lclavicle 3.8266e-014 3.69739e-014
lhumerus -33.5552 16.0928 82.158
lradius 25.4837
lwrist -18.9836
lhand 3.01345 34.4531
lfingers 7.12502
lthumb 28.4734 62.3062
rfemur 6.73333 4.5607 25.6724
rtibia 34.5519
rfoot 10.6158 1.47903
rtoes 5.83216
lfemur -29.5393 4.76773 -13.0583
ltibia 33.5834
lfoot -5.0312 2.95679
ltoes 0.702248
7
root 11.4748 17.345 -16.1893 3.34007 -12.2432 -6.23393
lowerback 2.91244 1.97251 5.38359
upperback -0.072739 2.85592 2.94343
thorax -1.59655 1.389 -0.103424
lowerneck -17.5354 -2.47638 -11.4887
upperneck 22.9985 -1.65501 5.81769
head 10.4232 -1.08214 3.77752
rclavicle 1.16289e-014 1.27222e-014
rhumerus -34.8536 -24.0966 -71.9832
rradius 41.0244
rwrist -20.9971
rhand -15.6787 18.548
rfingers 7.12502
rthumb 10.5101 -11.1692
lclavicle 1.16289e-014 1.27222e-014
lhumerus -33.6343 15.7107 82.2707
lradius 25.748
lwrist -18.5499
lhand 3.25344 34.2763
lfingers 7.12502
lthumb 28.7027 62.0908
rfemur 5.28243 4.71125 25.1366
rtibia 37.5648
rfoot 13.3146 1.53152
rtoes 5.75319
lfemur -28.6754 4.85894 -13.5765
ltibia 33.9171
lfoot -5.90285 2.70164
ltoes 1.64761
8
root 11.5003 17.3614 -16.0037 2.95581 -12.4025 -5.4598
lowerback 2.95078 1.95181 4.71458
upperback 0.123594 2.79505 2.67968
thorax -1.43616 1.36901 0.00130147
lowerneck -17.6473 -2.49516 -11.5112
upperneck 23.037 -1.68571 5.90953
head 10.462 -1.08709 3.81198
rclavicle -2.79044e-014 -3.1408e-014
rhumerus -35.2432 -25.5001 -71.3003
rradius 40.2536
rwrist -21.231
rhand -13.7729 18.477
rfingers 7.12502
rthumb 12.3481 -11.1383
lclavicle -2.79044e-014 -3.1408e-014
lhumerus -33.385 15.2367 82.3172
lradius 26.1386
lwrist -18.2338
lhand 3.6614 34.0495
lfingers 7.12502
lthumb 29.0924 61.7974
rfemur 3.7806 4.76172 24.1179
rtibia 40.5936
rfoot 15.412 1.71138
rtoes 5.45862
lfemur -27.7258 4.79315 -14.5919
ltibia 33.9933
lfoot -6.69347 2.97139
ltoes 1.67707
9
root 11.5236 17.3787 -15.8196 2.85126 -12.675 -4.80563
lowerback 2.95087 1.98697 3.92632
upperback 0.0291713 2.81955 2.56187
thorax -1.5641 1.3843 0.314618
lowerneck -17.0413 -2.36477 -10.5361
upperneck 22.5899 -1.54004 4.70143
head 10.1559 -1.07321 3.21836
rclavicle -2.45996e-015 1.59028e-015
rhumerus -36.1434 -26.4399 -70.3114
rradius 39.7035
rwrist -22.0869
rhand -11.4287 18.4827
rfingers 7.12502
rthumb 14.6075 -10.9829
lclavicle -2.45996e-015 1.59028e-015
lhumerus -33.6014 15.0678 82.2465
lradius 26.5758
lwrist -18.2937
lhand 3.88058 34.0323
lfingers 7.12502
lthumb 29.3017 61.7438
rfemur 2.01437 5.08599 23.2885
rtibia 43.6209
rfoot 16.5127 1.28443
rtoes 7.57147
lfemur -26.972 4.9656 -15.5273
ltibia 33.7541
lfoot -7.17673 3.18185
ltoes 1.14988
10
root 11.5519 17.4042 -15.6184 2.49681 -12.8692 -3.64006
lowerback 2.83688 1.95776 2.78788
upperback 0.0569912 2.73271 2.25713
thorax -1.51113 1.35037 0.643301
lowerneck -16.4804 -2.22064 -10.0109
upperneck 22.2156 -1.37744 4.0319
head 9.8948 -1.02698 2.90558
rclavicle 5.43676e-014 1.47101e-014
rhumerus -36.8765 -27.3637 -69.4343
rradius 39.0609
rwrist -22.6708
rhand -11.0129 18.1764
rfingers 7.12502
rthumb 15.0081 -11.2597
lclavicle 5.43676e-014 1.47101e-014
lhumerus -33.8085 14.8895 82.0572
lradius 27.1332
lwrist -18.2788
lhand 4.15628 34.0632
lfingers 7.12502
lthumb 29.5649 61.7283
rfemur 0.548031 5.14335 21.811
rtibia 46.6142
rfoot 16.2842 0.364773
rtoes 8.1893
lfemur -25.8479 5.22389 -17.0936
ltibia 33.259
lfoot -7.63893 3.06595
ltoes 0.628401
11
root 11.5829 17.4304 -15.4067 1.64145 -12.7297 -1.80106
lowerback 2.78471 1.76805 1.09455
upperback 0.346155 2.41157 1.79094
thorax -1.23714 1.20242 1.13
lowerneck -16.2947 -2.14091 -10.0967
upperneck 22.0884 -1.28319 4.11246
head 9.80795 -0.979985 2.95874
rclavicle 1.77664e-014 -1.15295e-014
rhumerus -37.2005 -28.0206 -68.7957
rradius 38.3487
rwrist -23.0217
rhand -13.1709 17.5821
rfingers 7.12502
rthumb 12.9285 -11.9974
lclavicle 1.77664e-014 -1.15295e-014
lhumerus -33.6068 14.6658 82.0065
lradius 27.4785
lwrist -18.0736
lhand 4.05816 33.8889
lfingers 7.12502
lthumb 29.4712 61.5706
rfemur -0.432875 4.72525 19.5765
rtibia 49.5501
rfoot 15.0827 -0.748662
rtoes 6.92913
lfemur -24.2034 5.14333 -19.3685
ltibia 32.6415
lfoot -8.20356 2.99582
ltoes 0.189059
12
root 11.6058 17.4487 -15.2232 1.13173 -12.642 -0.645605
lowerback 2.8123 1.68889 0.0326344
upperback 0.527061 2.2685 1.5042
thorax -1.09491 1.13491 1.43786
lowerneck -16.0729 -2.12384 -10.3049
upperneck 21.8766 -1.27005 4.28738
head 9.69259 -0.968034 3.05324
rclavicle -1.44864e-014 -2.26615e-014
rhumerus -37.684 -28.7354 -68.0325
rradius 37.7652
rwrist -23.3617
rhand -10.3679 18.1892
rfingers 7.12502
rthumb 15.6293 -11.1994
lclavicle -1.44864e-014 -2.26615e-014
lhumerus -33.1216 14.1795 82.1519
lradius 27.5396
lwrist -17.8976
lhand 3.6178 33.6496
lfingers 7.12502
lthumb 29.0507 61.4046
rfemur -1.85034 4.58 18.2997
rtibia 52.3847
rfoot 13.8171 -2.21116
rtoes 7.14961
lfemur -22.8989 4.82897 -20.7911
ltibia 31.9893
lfoot -8.49858 3.31031
ltoes 0.00324125
13
root 11.626 17.4678 -15.0599 1.05009 -12.6038 -0.244355
lowerback 2.91671 1.69883 -0.31087
upperback 0.574068 2.27031 1.39365
thorax -1.11405 1.13676 1.51426
lowerneck -15.4761 -2.29703 -9.75322
upperneck 20.9002 -1.47369 3.26795
head 9.24854 -1.11187 2.56264
rclavicle 1.8313e-014 4.37326e-015
rhumerus -38.3432 -29.8101 -67.0618
rradius 37.2662
rwrist -23.6432
rhand -16.5841 17.2346
rfingers 7.12502
rthumb 9.63663 -12.525
lclavicle 1.8313e-014 4.37326e-015
lhumerus -32.6091 13.332 82.3997
lradius 27.7548
lwrist -17.4596
lhand 3.42882 33.6786
lfingers 7.12502
lthumb 28.8702 61.4646
rfemur -3.71535 4.52538 17.9447
rtibia 55.028
rfoot 12.3993 -3.8606
rtoes 7.5169
lfemur -22.0201 4.45982 -21.3679
ltibia 31.4356
lfoot -8.69144 3.68271
ltoes 0.0759055
14
root 11.6519 17.4851 -14.8887 0.971235 -12.1614 0.0108147
lowerback 3.00218 1.46397 -0.5349
upperback 0.612391 1.95006 1.38375
thorax -1.12032 0.977303 1.64071
lowerneck -13.2223 -2.59213 -8.04057
upperneck 17.6834 -1.92291 0.418923
head 7.74271 -1.41999 1.25642
rclavicle -1.20016e-014 -2.78299e-015
rhumerus -38.8378 -30.7148 -66.1328
rradius 36.7345
rwrist -24.014
rhand -12.6806 17.4596
rfingers 7.12502
rthumb 13.401 -12.0894
lclavicle -1.20016e-014 -2.78299e-015
lhumerus -32.417 12.8924 82.4533
lradius 28.3642
lwrist -17.0422
lhand 3.41698 33.8355
lfingers 7.12502
lthumb 28.8589 61.6234
rfemur -5.33105 3.89581 17.6657
rtibia 57.3525
rfoot 10.7574 -5.45634
rtoes 7.7737
lfemur -21.1892 4.05507 -21.866
ltibia 31.0704
lfoot -9.05635 3.73931
ltoes 0.145041
